HIERARCHY
ROOT Root
{
  OFFSET 0.0 0.0 0.0
  CHANNELS 6 Xposition Yposition Zposition Zrotation Yrotation Xrotation
  JOINT Hips
  {
    OFFSET 0.0 100.0 0.0
    CHANNELS 6 Xposition Yposition Zposition Zrotation Yrotation Xrotation
    JOINT Spine1
    {
      OFFSET 5.003913 -0.037094 -0.013727
      CHANNELS 3 Zrotation Yrotation Xrotation
      JOINT Spine2
      {
        OFFSET 7.125363 -1e-06 0.0
        CHANNELS 3 Zrotation Yrotation Xrotation
        JOINT Chest
        {
          OFFSET 7.594027 1e-06 0.0
          CHANNELS 3 Zrotation Yrotation Xrotation
          JOINT Neck1
          {
            OFFSET 26.313086 -0.460272 -0.181672
            CHANNELS 3 Zrotation Yrotation Xrotation
            JOINT Neck2
            {
              OFFSET 8.045911 0.0 0.0
              CHANNELS 3 Zrotation Yrotation Xrotation
              JOINT Head
              {
                OFFSET 6.432774 0.0 0.0
                CHANNELS 3 Zrotation Yrotation Xrotation
                JOINT HeadEnd
                {
                  OFFSET 16.169773 0.06451 0.00362
                  CHANNELS 3 Zrotation Yrotation Xrotation
                }
                JOINT Jaw
                {
                  OFFSET 0.108741 3.12938 0.002639
                  CHANNELS 3 Zrotation Yrotation Xrotation
                }
                JOINT LeftEye
                {
                  OFFSET 4.45173 8.166359 3.206392
                  CHANNELS 3 Zrotation Yrotation Xrotation
                }
                JOINT RightEye
                {
                  OFFSET 4.436895 8.135758 -3.222429
                  CHANNELS 3 Zrotation Yrotation Xrotation
                }
              }
            }
          }
          JOINT LeftShoulder
          {
            OFFSET 23.218927 5.195579 1.621656
            CHANNELS 3 Zrotation Yrotation Xrotation
            JOINT LeftArm
            {
              OFFSET 15.902118 2e-06 -2e-06
              CHANNELS 3 Zrotation Yrotation Xrotation
              JOINT LeftForeArm
              {
                OFFSET 28.739307 0.0 -1e-06
                CHANNELS 3 Zrotation Yrotation Xrotation
                JOINT LeftHand
                {
                  OFFSET 27.093981 -4e-06 0.0
                  CHANNELS 3 Zrotation Yrotation Xrotation
                  JOINT LeftHandThumb1
                  {
                    OFFSET 2.276781 3.380274 0.83384
                    CHANNELS 3 Zrotation Yrotation Xrotation
                    JOINT LeftHandThumb2
                    {
                      OFFSET 4.705309 -1e-06 -1e-06
                      CHANNELS 3 Zrotation Yrotation Xrotation
                      JOINT LeftHandThumb3
                      {
                        OFFSET 2.798515 0.0 3e-06
                        CHANNELS 3 Zrotation Yrotation Xrotation
                        JOINT LeftHandThumbEnd
                        {
                          OFFSET 3.180793 4e-06 -4e-06
                          CHANNELS 3 Zrotation Yrotation Xrotation
                        }
                      }
                    }
                  }
                  JOINT LeftHandIndex1
                  {
                    OFFSET 3.247786 2.352677 0.137192
                    CHANNELS 3 Zrotation Yrotation Xrotation
                    JOINT LeftHandIndex2
                    {
                      OFFSET 6.367095 1e-06 0.0
                      CHANNELS 3 Zrotation Yrotation Xrotation
                      JOINT LeftHandIndex3
                      {
                        OFFSET 3.662364 0.0 0.0
                        CHANNELS 3 Zrotation Yrotation Xrotation
                        JOINT LeftHandIndex4
                        {
                          OFFSET 2.329242 4e-06 -4e-06
                          CHANNELS 3 Zrotation Yrotation Xrotation
                          JOINT LeftHandIndexEnd
                          {
                            OFFSET 2.767823 1e-06 0.0
                            CHANNELS 3 Zrotation Yrotation Xrotation
                          }
                        }
                      }
                    }
                  }
                  JOINT LeftHandMiddle1
                  {
                    OFFSET 3.163612 0.945023 -0.406112
                    CHANNELS 3 Zrotation Yrotation Xrotation
                    JOINT LeftHandMiddle2
                    {
                      OFFSET 6.276789 3e-06 0.0
                      CHANNELS 3 Zrotation Yrotation Xrotation
                      JOINT LeftHandMiddle3
                      {
                        OFFSET 4.35652 -1e-06 4e-06
                        CHANNELS 3 Zrotation Yrotation Xrotation
                        JOINT LeftHandMiddle4
                        {
                          OFFSET 2.996877 0.0 8e-06
                          CHANNELS 3 Zrotation Yrotation Xrotation
                          JOINT LeftHandMiddleEnd
                          {
                            OFFSET 2.323256 3e-06 -4e-06
                            CHANNELS 3 Zrotation Yrotation Xrotation
                          }
                        }
                      }
                    }
                  }
                  JOINT LeftHandRing1
                  {
                    OFFSET 2.882606 -0.309162 0.107445
                    CHANNELS 3 Zrotation Yrotation Xrotation
                    JOINT LeftHandRing2
                    {
                      OFFSET 6.033198 0.0 4e-06
                      CHANNELS 3 Zrotation Yrotation Xrotation
                      JOINT LeftHandRing3
                      {
                        OFFSET 4.350578 3e-06 0.0
                        CHANNELS 3 Zrotation Yrotation Xrotation
                        JOINT LeftHandRing4
                        {
                          OFFSET 2.651321 2e-06 -7e-06
                          CHANNELS 3 Zrotation Yrotation Xrotation
                          JOINT LeftHandRingEnd
                          {
                            OFFSET 1.937663 1e-06 -4e-06
                            CHANNELS 3 Zrotation Yrotation Xrotation
                          }
                        }
                      }
                    }
                  }
                  JOINT LeftHandPinky1
                  {
                    OFFSET 2.865315 -1.525436 0.575687
                    CHANNELS 3 Zrotation Yrotation Xrotation
                    JOINT LeftHandPinky2
                    {
                      OFFSET 5.54936 1e-06 -8e-06
                      CHANNELS 3 Zrotation Yrotation Xrotation
                      JOINT LeftHandPinky3
                      {
                        OFFSET 3.070974 0.0 -4e-06
                        CHANNELS 3 Zrotation Yrotation Xrotation
                        JOINT LeftHandPinky4
                        {
                          OFFSET 1.549672 1e-06 0.0
                          CHANNELS 3 Zrotation Yrotation Xrotation
                          JOINT LeftHandPinkyEnd
                          {
                            OFFSET 1.952123 0.0 0.0
                            CHANNELS 3 Zrotation Yrotation Xrotation
                          }
                        }
                      }
                    }
                  }
                }
              }
            }
          }
          JOINT RightShoulder
          {
            OFFSET 23.161716 5.296122 -1.380114
            CHANNELS 3 Zrotation Yrotation Xrotation
            JOINT RightArm
            {
              OFFSET -16.027195 -2e-06 1.1e-05
              CHANNELS 3 Zrotation Yrotation Xrotation
              JOINT RightForeArm
              {
                OFFSET -28.736639 4e-06 2e-06
                CHANNELS 3 Zrotation Yrotation Xrotation
                JOINT RightHand
                {
                  OFFSET -27.133619 6e-06 0.0
                  CHANNELS 3 Zrotation Yrotation Xrotation
                  JOINT RightHandThumb1
                  {
                    OFFSET -2.274328 -3.351035 -0.83067
                    CHANNELS 3 Zrotation Yrotation Xrotation
                    JOINT RightHandThumb2
                    {
                      OFFSET -4.703594 -3e-06 2e-06
                      CHANNELS 3 Zrotation Yrotation Xrotation
                      JOINT RightHandThumb3
                      {
                        OFFSET -2.794935 -4e-06 -3e-06
                        CHANNELS 3 Zrotation Yrotation Xrotation
                        JOINT RightHandThumbEnd
                        {
                          OFFSET -3.183852 4e-06 1e-06
                          CHANNELS 3 Zrotation Yrotation Xrotation
                        }
                      }
                    }
                  }
                  JOINT RightHandIndex1
                  {
                    OFFSET -3.253496 -2.33755 -0.127667
                    CHANNELS 3 Zrotation Yrotation Xrotation
                    JOINT RightHandIndex2
                    {
                      OFFSET -6.344434 0.0 0.0
                      CHANNELS 3 Zrotation Yrotation Xrotation
                      JOINT RightHandIndex3
                      {
                        OFFSET -3.654871 0.0 -8e-06
                        CHANNELS 3 Zrotation Yrotation Xrotation
                        JOINT RightHandIndex4
                        {
                          OFFSET -2.327586 -1e-06 0.0
                          CHANNELS 3 Zrotation Yrotation Xrotation
                          JOINT RightHandIndexEnd
                          {
                            OFFSET -2.770001 3e-06 8e-06
                            CHANNELS 3 Zrotation Yrotation Xrotation
                          }
                        }
                      }
                    }
                  }
                  JOINT RightHandMiddle1
                  {
                    OFFSET -3.168223 -0.944764 0.411762
                    CHANNELS 3 Zrotation Yrotation Xrotation
                    JOINT RightHandMiddle2
                    {
                      OFFSET -6.266691 -1e-06 -4e-06
                      CHANNELS 3 Zrotation Yrotation Xrotation
                      JOINT RightHandMiddle3
                      {
                        OFFSET -4.348901 0.0 0.0
                        CHANNELS 3 Zrotation Yrotation Xrotation
                        JOINT RightHandMiddle4
                        {
                          OFFSET -3.00024 2e-06 -4e-06
                          CHANNELS 3 Zrotation Yrotation Xrotation
                          JOINT RightHandMiddleEnd
                          {
                            OFFSET -2.321477 -4e-06 -4e-06
                            CHANNELS 3 Zrotation Yrotation Xrotation
                          }
                        }
                      }
                    }
                  }
                  JOINT RightHandRing1
                  {
                    OFFSET -2.885654 0.293261 -0.119232
                    CHANNELS 3 Zrotation Yrotation Xrotation
                    JOINT RightHandRing2
                    {
                      OFFSET -6.032835 -1e-06 -4e-06
                      CHANNELS 3 Zrotation Yrotation Xrotation
                      JOINT RightHandRing3
                      {
                        OFFSET -4.33881 0.0 -4e-06
                        CHANNELS 3 Zrotation Yrotation Xrotation
                        JOINT RightHandRing4
                        {
                          OFFSET -2.654903 -4e-06 -4e-06
                          CHANNELS 3 Zrotation Yrotation Xrotation
                          JOINT RightHandRingEnd
                          {
                            OFFSET -1.935122 0.0 4e-06
                            CHANNELS 3 Zrotation Yrotation Xrotation
                          }
                        }
                      }
                    }
                  }
                  JOINT RightHandPinky1
                  {
                    OFFSET -2.866241 1.503904 -0.60527
                    CHANNELS 3 Zrotation Yrotation Xrotation
                    JOINT RightHandPinky2
                    {
                      OFFSET -5.553177 -2e-06 0.0
                      CHANNELS 3 Zrotation Yrotation Xrotation
                      JOINT RightHandPinky3
                      {
                        OFFSET -3.062664 -1e-06 -4e-06
                        CHANNELS 3 Zrotation Yrotation Xrotation
                        JOINT RightHandPinky4
                        {
                          OFFSET -1.546529 2e-06 4e-06
                          CHANNELS 3 Zrotation Yrotation Xrotation
                          JOINT RightHandPinkyEnd
                          {
                            OFFSET -1.952341 0.0 -4e-06
                            CHANNELS 3 Zrotation Yrotation Xrotation
                          }
                        }
                      }
                    }
                  }
                }
              }
            }
          }
        }
      }
    }
    JOINT LeftLeg
    {
      OFFSET -8.443107 2.567604 10.043214
      CHANNELS 3 Zrotation Yrotation Xrotation
      JOINT LeftShin
      {
        OFFSET 43.229198 1e-06 -1e-06
        CHANNELS 3 Zrotation Yrotation Xrotation
        JOINT LeftFoot
        {
          OFFSET 42.298611 1e-06 1e-06
          CHANNELS 3 Zrotation Yrotation Xrotation
          JOINT LeftToeBase
          {
            OFFSET 14.165858 1e-06 0.0
            CHANNELS 3 Zrotation Yrotation Xrotation
            JOINT LeftToeEnd
            {
              OFFSET 6.7141 -0.234461 0.0
              CHANNELS 3 Zrotation Yrotation Xrotation
            }
          }
        }
      }
    }
    JOINT RightLeg
    {
      OFFSET -8.303923 2.592729 -10.047278
      CHANNELS 3 Zrotation Yrotation Xrotation
      JOINT RightShin
      {
        OFFSET -43.369682 0.0 1e-06
        CHANNELS 3 Zrotation Yrotation Xrotation
        JOINT RightFoot
        {
          OFFSET -42.260784 4e-06 2e-06
          CHANNELS 3 Zrotation Yrotation Xrotation
          JOINT RightToeBase
          {
            OFFSET -14.222245 -2e-06 -1e-06
            CHANNELS 3 Zrotation Yrotation Xrotation
            JOINT RightToeEnd
            {
              OFFSET -6.660062 0.232574 -2e-06
              CHANNELS 3 Zrotation Yrotation Xrotation
            }
          }
        }
      }
    }
  }
}
MOTION
Frames: 4
Frame Time: 0.03333333333333333
0.0 0.0 0.0 0.0 -0.0 0.0 0.320485 47.938969 5.980192 92.902992 -57.452171 87.572632 13.665502 0.586333 -1.116623 -5.35271 -0.238435 -1.116799 15.942001 3.169775 -2.986482 21.956886 4.2768 4.515916 -2.706849 -0.121457 3.073353 -21.225775 2.29206 2.837106 7e-06 -1e-06 0.0 -0.229635 0.150347 0.013421 -0.338999 0.285305 -0.027048 -0.36578 0.014907 0.054125 -20.602226 -73.548386 26.65477 83.670647 -5.574191 -24.033035 18.090044 -1.824719 0.123711 -42.231323 77.539909 -34.245934 17.636621 -26.322727 52.411182 -19.46666 -14.395597 29.410381 -1e-06 -8.774817 -1e-06 15.394767 -18.131933 6.939028 -0.609776 -1.795653 -3.889327 -4.807087 -11.046807 -2.93785 6e-06 -20.976011 2e-06 -5.019968 -25.033546 -4.03188 6e-06 -2e-06 1e-06 -10.634529 -5.686969 -3.565587 10.573271 -17.922949 -3.113899 2e-06 -13.821205 1e-06 -0.501777 -31.181498 -4.027014 -10.535731 -58.815361 7.075137 -13.982709 -7.150195 -2.875041 13.772726 -8.401492 -3.218242 0.347734 -34.211544 0.771655 -0.963028 -17.733366 2.621021 -0.0 0.0 0.0 -17.346411 -20.095213 -4.201782 21.757553 -1.638377 3.866427 1e-06 -6.338822 1e-06 -1.697587 -22.591738 -6.194005 -0.0 -6e-06 -2e-06 161.983398 -74.338509 20.049997 95.016983 -11.104514 -32.156849 9.275131 -1.005914 0.032033 20.041794 70.203606 20.472065 22.182108 -20.375889 49.933319 -16.701811 -16.743528 28.476526 -4e-06 -12.6906 -2e-06 17.048214 -18.347921 2.068457 -0.10592 -1.513853 -4.275881 -5.039041 -5.61287 -2.953556 4e-06 -11.02052 -2e-06 -6.111298 -15.895334 -3.840472 1e-06 1e-06 1e-06 -10.283369 -5.680287 -4.341838 11.028292 -11.302402 -2.372633 -1.384269 -14.238581 -6.320119 -0.625438 -26.924187 -3.827604 -3.813669 -49.356205 -4.66369 -13.708526 -7.363472 -3.720938 18.141148 -14.052738 -3.242675 5e-06 -18.787266 -3e-06 -0.429712 -8.456043 2.555503 0.0 0.0 1e-06 -15.923532 -20.094479 -5.473586 30.419207 -7.190823 1.735924 2e-06 -8.162921 1e-06 -1.861902 -22.861464 -6.16794 -0.0 -4e-06 -1e-06 118.111977 -5.716756 8.691565 109.192215 -0.437053 0.412197 -51.047482 25.332724 3.925727 -9.105218 1.094933 1.982228 -0.999998 0.0 0.0 -68.293465 -4.476584 -4.386861 120.125137 0.098795 0.114118 -66.126389 -0.634576 10.686817 -6.978218 0.835588 1.559473 -1.000003 -0.0 -0.0 
0.0 0.0 0.0 0.0 -0.0 0.0 0.335377 47.886715 6.062793 92.751244 -57.518772 87.707718 13.630237 0.667308 -1.080942 -5.40878 -0.217322 -1.123358 15.992075 3.21773 -2.920493 21.984283 4.216444 4.396302 -2.69862 -0.119982 3.033301 -21.156157 2.267786 2.81423 7e-06 -1e-06 0.0 -0.227381 0.119325 0.015734 -0.321932 0.251858 -0.020296 -0.359958 -0.011786 0.050562 -20.328247 -73.671333 26.590094 83.766235 -5.43527 -24.438667 17.787233 -1.810801 0.119785 -39.868069 77.762589 -32.082344 17.636631 -26.322733 52.411205 -19.466663 -14.395598 29.410393 -1e-06 -8.774821 -2e-06 15.440362 -18.204397 6.98309 -0.609777 -1.795653 -3.889328 -4.80709 -11.046812 -2.937852 5e-06 -20.976017 1e-06 -5.019969 -25.03356 -4.031882 6e-06 -3e-06 0.0 -10.634537 -5.686972 -3.565588 10.573275 -17.922951 -3.113901 3e-06 -13.821209 1e-06 -0.501776 -31.181501 -4.027018 -10.482674 -59.107216 7.115475 -13.982716 -7.150199 -2.875043 13.772731 -8.401491 -3.218242 0.347734 -34.211552 0.771654 -0.963028 -17.733368 2.621019 -0.0 0.0 0.0 -17.346422 -20.095217 -4.201784 21.757559 -1.638378 3.866428 1e-06 -6.338824 0.0 -1.697588 -22.591742 -6.194007 -1e-06 -6e-06 -2e-06 161.428497 -74.246902 20.710558 95.176193 -10.966979 -32.248241 9.164562 -0.95602 0.047843 20.754614 70.037712 21.087374 22.182119 -20.375896 49.933338 -16.701818 -16.74353 28.476542 -3e-06 -12.690601 -2e-06 16.986046 -18.291595 2.119291 -0.105919 -1.513855 -4.275881 -5.03904 -5.612872 -2.953558 4e-06 -11.020525 -2e-06 -6.111298 -15.895334 -3.840476 1e-06 1e-06 1e-06 -10.283371 -5.680289 -4.34184 11.028295 -11.302404 -2.372634 -1.38427 -14.238586 -6.320123 -0.625434 -26.924194 -3.827608 -3.79594 -49.478062 -4.556336 -13.708527 -7.363475 -3.720942 18.14115 -14.052739 -3.242675 7e-06 -18.78727 -4e-06 -0.429711 -8.456043 2.555504 0.0 1e-06 2e-06 -15.923538 -20.094486 -5.473588 30.419218 -7.190827 1.735925 2e-06 -8.162925 2e-06 -1.861901 -22.861471 -6.167945 -0.0 -2e-06 -1e-06 118.128067 -5.708422 8.751466 109.108902 -0.464164 0.412515 -50.748978 25.385931 4.102514 -8.939794 1.113316 1.963783 -1.000001 -1e-06 -0.0 -68.241302 -4.443788 -4.474122 119.990227 0.086018 0.106542 -65.684029 -0.730082 10.689964 -6.942806 0.837921 1.561274 -1.000001 -0.0 -0.0 
0.0 0.0 0.0 0.0 -0.0 0.0 0.343716 47.858707 6.118231 92.774811 -57.582752 87.725197 13.547136 0.703579 -1.036655 -5.45434 -0.191053 -1.106216 16.043955 3.222289 -2.914156 21.996578 4.259504 4.258253 -2.695602 -0.160571 2.988255 -21.166702 2.191247 2.819359 6e-06 -1e-06 0.0 -0.221723 0.089532 0.019127 -0.351158 0.221667 -0.024487 -0.386581 -0.040069 0.058153 -19.836826 -73.704872 26.217316 83.815018 -5.389567 -24.438963 17.561455 -1.753845 0.134595 -39.187737 77.598923 -31.703249 17.63662 -26.322729 52.411182 -19.466656 -14.3956 29.410389 -1e-06 -8.774821 -1e-06 15.498225 -18.24169 6.982163 -0.609776 -1.795653 -3.889327 -4.807087 -11.046809 -2.93785 6e-06 -20.976015 2e-06 -5.019969 -25.033552 -4.03188 6e-06 -0.0 1e-06 -10.634531 -5.686968 -3.565587 10.573275 -17.922951 -3.1139 2e-06 -13.821206 1e-06 -0.501776 -31.181505 -4.027013 -10.416641 -59.308304 7.12611 -13.982709 -7.150195 -2.875042 13.772727 -8.401491 -3.218243 0.347734 -34.211544 0.771655 -0.963028 -17.733366 2.621019 -0.0 1e-06 -0.0 -17.346411 -20.095211 -4.20178 21.757555 -1.638376 3.866424 1e-06 -6.338824 1e-06 -1.697587 -22.591738 -6.194005 -1e-06 -5e-06 -2e-06 161.215759 -74.221115 21.039034 95.155281 -10.850087 -32.256493 9.095981 -0.966118 0.056437 21.480986 70.065842 21.939493 22.182116 -20.375891 49.933308 -16.701811 -16.74353 28.476528 -2e-06 -12.690601 -1e-06 16.946543 -18.209927 2.160098 -0.10592 -1.513858 -4.275881 -5.039041 -5.612871 -2.953557 4e-06 -11.020523 -1e-06 -6.111297 -15.895334 -3.840469 1e-06 -1e-06 -1e-06 -10.283369 -5.680286 -4.341837 11.028294 -11.302409 -2.372632 -1.38427 -14.238585 -6.32012 -0.625438 -26.924194 -3.827605 -3.770751 -49.50864 -4.473312 -13.708527 -7.363477 -3.720937 18.141148 -14.052739 -3.242674 5e-06 -18.78727 -2e-06 -0.429712 -8.456044 2.555502 0.0 0.0 1e-06 -15.923536 -20.094484 -5.473582 30.41921 -7.190826 1.735925 2e-06 -8.162925 1e-06 -1.861904 -22.861469 -6.167942 -0.0 -4e-06 -1e-06 118.130608 -5.633129 8.765049 109.060265 -0.461266 0.413318 -50.717583 25.358795 4.129873 -8.940128 1.118693 1.953648 -0.999997 -0.0 -0.0 -68.226982 -4.476458 -4.458908 119.952682 0.08417 0.110483 -65.66394 -0.686291 10.560593 -7.052937 0.835251 1.558607 -1.000003 -0.0 -1e-06 
0.0 0.0 0.0 0.0 -0.0 0.0 0.329636 47.836697 6.158412 92.825676 -57.679821 87.74015 13.447648 0.725492 -1.000428 -5.49229 -0.181796 -1.093356 16.059841 3.26187 -2.938015 21.96722 4.311974 4.123131 -2.689182 -0.21792 2.946937 -21.22426 2.131835 2.845979 5e-06 -1e-06 0.0 -0.21788 0.066693 0.021398 -0.395495 0.199314 -0.034015 -0.422031 -0.063641 0.069668 -19.49313 -73.699562 25.951422 83.874863 -5.415076 -24.528917 17.389618 -1.742887 0.137139 -38.95248 77.550133 -31.579094 17.63662 -26.322718 52.411179 -19.466652 -14.395597 29.410378 -2e-06 -8.774819 -2e-06 15.49236 -18.245953 7.001228 -0.609777 -1.795653 -3.889326 -4.807088 -11.046807 -2.93785 4e-06 -20.976006 2e-06 -5.019968 -25.033543 -4.031882 6e-06 -0.0 1e-06 -10.634532 -5.686967 -3.565586 10.57327 -17.922945 -3.113899 2e-06 -13.821203 1e-06 -0.501778 -31.181498 -4.027015 -10.378954 -59.419258 7.116055 -13.98271 -7.150195 -2.875041 13.772724 -8.401489 -3.218242 0.347733 -34.211536 0.771655 -0.963028 -17.733364 2.621019 -0.0 -0.0 -0.0 -17.346413 -20.095207 -4.20178 21.757555 -1.638375 3.866427 1e-06 -6.338821 2e-06 -1.69759 -22.591736 -6.194003 -0.0 -6e-06 -2e-06 161.060654 -74.190117 21.25 95.100441 -10.826715 -32.288074 9.123115 -1.008076 0.058996 22.096495 70.139183 22.722683 22.182117 -20.375887 49.933296 -16.701807 -16.74353 28.476519 -1e-06 -12.690599 -1e-06 16.940332 -18.163057 2.189887 -0.10592 -1.513857 -4.27588 -5.039038 -5.612871 -2.953556 2e-06 -11.020523 -0.0 -6.111297 -15.89533 -3.84047 1e-06 1e-06 -0.0 -10.283369 -5.680289 -4.341837 11.028294 -11.302403 -2.37263 -1.384269 -14.238583 -6.320117 -0.625439 -26.924191 -3.8276 -3.749479 -49.55061 -4.407609 -13.708522 -7.363476 -3.720938 18.141146 -14.052739 -3.242672 7e-06 -18.787266 -2e-06 -0.429712 -8.456042 2.555506 0.0 1e-06 1e-06 -15.923536 -20.094482 -5.473582 30.419207 -7.190824 1.735928 3e-06 -8.162921 -0.0 -1.861902 -22.861469 -6.16794 -1e-06 -2e-06 -1e-06 118.081566 -5.547986 8.811008 109.045143 -0.44865 0.413858 -50.862549 25.336948 4.132985 -9.084542 1.119143 1.945801 -0.999997 -1e-06 -0.0 -68.255142 -4.526628 -4.441543 119.968193 0.102864 0.113211 -65.902794 -0.647219 10.361431 -7.269361 0.824955 1.558676 -1.000002 -0.0 -0.0 
